<mxfile host="app.diagrams.net" modified="2023-10-23T14:22:06.334Z" agent="Mozilla/5.0 (Windows NT 10.0; Win64; x64) AppleWebKit/537.36 (KHTML, like Gecko) Chrome/118.0.0.0 Safari/537.36" version="22.0.6" etag="6KzuCjge7paraYl5YsiS" type="github">
  <diagram name="Page-1" id="scEeOO-j2-ESkFC7_gNe">
    <mxGraphModel>
      <root>
        <mxCell id="0" />
        <mxCell id="1" parent="0" />
      </root>
    </mxGraphModel>
  </diagram>
</mxfile>
